<?xml version="1.0" standalone="no"?>
<!DOCTYPE svg PUBLIC "-//W3C//DTD SVG 20010904//EN"
 "http://www.w3.org/TR/2001/REC-SVG-20010904/DTD/svg10.dtd">
<svg version="1.0" xmlns="http://www.w3.org/2000/svg"
 width="1211.000000pt" height="483.000000pt" viewBox="0 0 1211.000000 483.000000"
 preserveAspectRatio="xMidYMid meet">

<g transform="translate(0.000000,483.000000) scale(0.100000,-0.100000)"
fill="#000000" stroke="none">
<path d="M2780 4809 c-353 -36 -721 -159 -1020 -339 -244 -146 -364 -255
-1055 -951 -474 -477 -520 -529 -590 -669 -65 -128 -105 -298 -105 -442 0
-207 92 -458 227 -618 16 -19 294 -299 619 -621 470 -467 612 -603 704 -671
327 -242 673 -388 1090 -459 l135 -23 4450 -4 c2684 -1 4474 1 4510 7 175 27
312 163 345 344 14 73 1 150 -41 237 -29 59 -86 119 -590 625 -308 308 -576
583 -595 610 -51 71 -121 219 -146 311 -27 100 -36 344 -18 449 15 83 53 201
87 270 69 137 113 187 683 760 611 615 595 596 622 729 32 160 -72 345 -238
427 l-69 34 -4460 1 c-2460 1 -4498 -2 -4545 -7z"/>
</g>
</svg>
